<svg xmlns="http://www.w3.org/2000/svg" width="512" height="512" fill="none" viewBox="0 0 512 512">
  <g fill="#1d242f" fill-rule="evenodd" clip-rule="evenodd">
    <path d="M451.403 102.777C474.67 116.21 489 141.02 489 167.867v189.419c0 37.94-26.951 66.554-59.652 73.609-.562.121-.927-.565-.524-.974 13.048-13.224 21.401-31.446 21.401-52.557V188.027c0-26.835-14.333-51.635-37.603-65.062l-160.36-92.537c-16.084-9.281-33.46-11.872-49.646-9.202-.566.094-.922-.597-.5-.986 22.856-21.1 58.255-27.762 88.95-10.04z"/>
    <path d="M374.842 143.148c23.359 13.435 37.745 38.247 37.745 65.097v189.438c0 37.857-26.933 66.43-59.661 73.568-.562.123-.928-.563-.527-.972 12.966-13.212 21.253-31.354 21.253-52.353V228.488c0-26.85-14.387-51.662-37.745-65.097L174.936 70.805c-16.162-9.296-33.623-11.884-49.885-9.199-.567.094-.922-.598-.5-.986 22.946-21.117 58.496-27.787 89.32-10.058z"/>
    <path d="M296.26 183.189c23.268 13.393 37.599 38.129 37.599 64.896v188.85c0 57.69-62.694 93.753-112.864 64.922l-160.35-92.151C37.35 396.32 23 371.57 23 344.784V155.786c0-57.713 62.74-93.773 112.91-64.895zm-76.322 84.192a28.87 28.87 0 0 0 14.485 25.022l56.139 32.306-.119-76.624c0-11.324-6.063-21.789-15.907-27.455l-54.384-30.645zm-40.521 23.095a28.87 28.87 0 0 0 14.484 25.021l96.661 55.626v39.613l-131.781-76.459c-8.898-5.162-14.38-14.713-14.38-25.05V147.301l35.016 19.731zm-60.875 66.922c-8.897-5.162-14.38-14.712-14.38-25.049V124.378c-18.68-3.493-37.746 10.78-37.746 31.408v188.998c0 11.332 6.071 21.803 15.926 27.466l160.351 92.151c15.535 8.928 33.907 3.148 42.643-10.16z"/>
  </g>
</svg>