<svg xmlns="http://www.w3.org/2000/svg" width="348" height="384" fill="none">
  <path fill="#1D242F" d="M116.72 217.857a21.672 21.672 0 0 0 10.817 18.766l72.185 41.719v-34.81l-41.924-24.23a21.672 21.672 0 0 1-10.817-18.766v-58.685l-30.261-17.493v93.499Z"/>
  <path fill="#1D242F" d="M60.522 249.261c0 7.753 4.094 14.916 10.738 18.788l124.647 72.632s1.412-1.405 2.518-8.357c1.513-9.513 1.297-24.272 1.297-24.272l-98.412-57.344c-6.645-3.872-10.739-11.035-10.739-18.788V110.426L60.521 93.42v155.841Z"/>
  <path fill="#1D242F" fill-rule="evenodd" d="M319.924 77.082C337.298 87.158 348 105.765 348 125.901v142.063c0 28.455-20.127 49.916-44.547 55.207-.42.091-.692-.424-.391-.73 9.744-9.918 15.981-23.585 15.981-39.418V141.021c0-20.127-10.703-38.727-28.08-48.798L171.208 22.821c-12.011-6.96-24.986-8.904-37.074-6.901-.423.07-.688-.448-.374-.74C150.829-.645 177.264-5.64 200.186 7.65l119.738 69.432Z" clip-rule="evenodd"/>
  <path fill="#1D242F" fill-rule="evenodd" d="M262.749 107.361a56.383 56.383 0 0 1 28.187 48.823v142.078c0 28.393-20.113 49.823-44.554 55.177-.419.091-.693-.423-.393-.73 9.683-9.909 15.871-23.516 15.871-39.265V171.366a56.386 56.386 0 0 0-28.187-48.823l-120.21-69.44c-12.069-6.971-25.109-8.912-37.253-6.898-.423.07-.689-.449-.373-.74 17.135-15.838 43.683-20.84 66.702-7.544l120.21 69.44Z" clip-rule="evenodd"/>
  <path fill="#1D242F" fill-rule="evenodd" d="M232.144 186.064a56.216 56.216 0 0 0-28.079-48.672L84.319 68.168C46.853 46.509 0 73.554 0 116.84v141.748a56.22 56.22 0 0 0 28.113 48.692l119.746 69.112c37.466 21.624 84.285-5.423 84.285-48.691V186.064ZM32.422 116.84c0-15.472 14.15-26.04 28.1-23.42l127.32 72.052a23.785 23.785 0 0 1 11.88 20.592v121.988s.216 14.759-1.297 24.272c-1.106 6.952-2.518 8.357-2.518 8.357-6.523 9.981-20.243 14.315-31.845 7.62L44.316 279.188a23.785 23.785 0 0 1-11.894-20.6V116.84Z" clip-rule="evenodd"/>
</svg>
